<?xml version="1.0" standalone="no"?>
<!DOCTYPE svg PUBLIC "-//W3C//DTD SVG 20010904//EN"
 "http://www.w3.org/TR/2001/REC-SVG-20010904/DTD/svg10.dtd">
<svg version="1.0" xmlns="http://www.w3.org/2000/svg"
 width="95.000000pt" height="95.000000pt" viewBox="0 0 95.000000 95.000000"
 preserveAspectRatio="xMidYMid meet">
<metadata>
Created by potrace 1.11, written by Peter Selinger 2001-2013
</metadata>
<g transform="translate(0.000000,95.000000) scale(0.100000,-0.100000)"
fill="#000000" stroke="none">
<path d="M440 850 c-11 -11 -20 -32 -21 -47 0 -16 -1 -39 -3 -53 -1 -25 0 -25
75 -25 l76 0 -1 52 c-1 35 -8 59 -21 72 -24 27 -78 28 -105 1z"/>
<path d="M668 728 c-43 -15 -42 -36 2 -81 23 -22 40 -34 38 -26 -2 9 4 13 17
11 18 -3 141 -69 203 -110 27 -18 27 -12 3 36 -61 119 -183 198 -263 170z"/>
<path d="M198 707 c-51 -12 -128 -90 -167 -169 -17 -34 -29 -63 -27 -65 2 -3
37 20 78 50 101 75 171 109 152 75 -3 -7 12 7 34 32 36 40 39 47 25 61 -19 22
-49 27 -95 16z"/>
<path d="M373 675 c-108 -54 -161 -183 -123 -301 20 -62 26 -59 22 9 -11 179
151 305 319 246 29 -10 68 -33 86 -51 18 -18 33 -26 33 -19 0 24 -104 116
-146 129 -67 20 -134 15 -191 -13z"/>
<path d="M441 606 c-149 -53 -196 -240 -89 -361 22 -25 45 -45 51 -45 6 0 1
10 -10 23 -69 76 -74 197 -10 280 51 67 162 103 233 77 41 -16 40 -5 -2 15
-46 22 -128 27 -173 11z"/>
<path d="M474 550 c-98 -49 -139 -150 -104 -256 20 -59 106 -125 162 -123 20
1 19 2 -7 10 -38 11 -94 64 -111 106 -18 42 -18 115 0 156 19 45 90 104 140
116 l41 9 -40 1 c-22 1 -58 -8 -81 -19z"/>
<path d="M261 211 c-6 -11 -11 -26 -11 -34 0 -7 -16 -32 -36 -55 l-36 -42 52
0 c117 0 154 55 80 118 -37 32 -39 32 -49 13z"/>
<path d="M657 194 c-68 -63 -36 -114 73 -114 l50 0 -29 41 c-16 22 -33 53 -36
69 -4 17 -10 32 -13 34 -4 2 -24 -11 -45 -30z"/>
<path d="M469 98 c7 -10 17 -18 22 -18 5 0 9 8 8 18 0 11 -2 12 -6 4 -4 -10
-8 -10 -21 0 -15 12 -16 11 -3 -4z"/>
</g>
</svg>
